<svg width="510" height="575" viewBox="0 0 510 575" fill="none" xmlns="http://www.w3.org/2000/svg">
<g filter="url(#filter0_d)">
<rect x="227" y="2" width="246.156" height="278.217" fill="#F2F2F2"/>
</g>
<path d="M400.194 175.885C408.741 175.885 415.671 168.1 415.671 158.497C415.671 148.894 408.741 141.108 400.194 141.108C391.646 141.108 384.717 148.894 384.717 158.497C384.717 168.1 391.646 175.885 400.194 175.885Z" fill="#A1616A"/>
<path d="M414.251 173.871C414.249 174.73 414.328 175.587 414.488 176.434C414.705 177.291 415.01 178.129 415.403 178.939C415.927 180.255 416.666 181.501 417.598 182.639C418.546 183.784 419.964 184.577 421.566 184.859C410.849 189.173 399.409 192.013 387.665 193.274C389.515 192.217 391.054 190.805 392.162 189.15C392.749 188.088 393.151 186.956 393.353 185.793C394.353 180.925 393.845 175.916 391.88 171.27C391.685 170.812 391.495 170.249 391.863 169.878C392.02 169.741 392.21 169.635 392.42 169.568C397.076 167.874 402.105 167.069 407.16 167.207C408.451 167.214 409.743 167.263 411.031 167.343C411.724 167.386 413.254 167.261 413.805 167.697C414.463 168.217 414.133 169.831 414.154 170.537L414.251 173.871Z" fill="#A1616A"/>
<path d="M389.183 163.031C387.199 162.061 387.722 159.429 387.385 157.407C386.691 153.248 381.511 150.78 380.295 146.721C381.692 146.876 383.11 146.694 384.404 146.193C384.654 144.845 384.36 143.46 383.576 142.293C387.836 140.723 391.284 137.641 395.61 136.226C401.049 134.446 407.108 135.538 412.595 137.193C415.333 138.019 418.182 139.091 419.838 141.235C421.656 143.59 421.628 146.69 421.531 149.565C421.377 154.072 421.181 158.742 418.97 162.781C416.153 167.923 408.18 172.686 401.593 171.293C398.853 170.714 398.047 169.153 396.892 166.992C396.174 165.648 395.904 164.087 394.285 163.387C392.704 162.704 390.788 163.815 389.183 163.031Z" fill="#2F2E41"/>
<path d="M327.778 209.416C326.805 206.041 328.644 202.431 327.206 199.14C326.687 197.953 325.413 196.72 323.661 196.755C321.958 196.788 320.806 197.969 319.297 198.528C316.864 199.43 313.91 198.611 311.478 197.707C309.047 196.804 306.337 195.781 303.7 196.323C303.39 197.493 304.505 198.61 305.718 199.433C307.062 200.153 308.174 201.067 308.982 202.115C309.377 203.248 309.527 204.417 309.427 205.581C309.703 208.255 312.093 210.557 314.48 212.637C318.326 215.988 322.411 219.198 326.717 222.255C326.71 222.25 333.251 216.513 333.125 215.511C333.007 214.566 330.806 213.681 330.007 212.919C328.912 211.881 328.151 210.685 327.778 209.416Z" fill="#A1616A"/>
<path d="M477.384 267.719C477.848 268.659 478.196 269.632 478.423 270.624C479.766 275.707 480.613 280.86 481.448 286.008C481.671 287.382 481.893 288.758 481.962 290.142C482.198 293.428 481.332 296.705 479.449 299.65C477.534 302.602 474.279 304.891 470.318 306.071C469.098 306.41 467.393 306.471 466.86 305.55C466.67 305.124 466.674 304.66 466.872 304.236C467.353 302.865 468.333 301.635 468.969 300.303C469.913 298.313 470.07 296.148 469.421 294.087C469.171 293.299 468.642 292.42 467.622 292.263C468.131 294.08 467.702 295.98 466.428 297.552C466.138 297.99 465.638 298.321 465.037 298.473C464.168 298.541 463.355 298.131 463.076 297.485C462.827 296.851 462.773 296.181 462.918 295.528C463.245 292.225 463.889 288.947 464.845 285.72C465.983 282.177 467.786 278.683 467.67 275.032C467.565 271.723 465.876 268.475 466.349 265.186C466.356 264.983 466.44 264.786 466.59 264.62C466.739 264.505 466.92 264.418 467.118 264.366C468.302 263.985 469.52 263.67 470.761 263.425C471.495 263.281 474 262.602 474.703 262.905C475.273 263.151 475.448 264.625 475.733 265.124C476.236 266.007 476.907 266.826 477.384 267.719Z" fill="#A1616A"/>
<path d="M437.295 453.233C438.545 454.279 440.684 454.49 442.62 454.628C445.121 454.879 447.658 454.913 450.171 454.728C453.157 454.419 456.794 456.198 459.522 455.292C461.172 454.744 463.712 455.029 465.361 454.482C467.623 453.731 478.255 455.405 479.632 453.94C481.009 452.474 480.869 450.159 478.692 449.294C478.075 449.091 477.437 448.918 476.785 448.776C473.14 447.77 461.085 438.56 457.207 438.171C455.283 438.109 453.373 438.421 451.691 439.073C447.868 440.25 441.116 441.18 439.448 444.168C438.148 446.496 434.592 450.957 437.295 453.233Z" fill="#2F2E41"/>
<path d="M420.719 455.293C419.647 456.281 417.813 456.48 416.154 456.61C414.01 456.848 411.835 456.879 409.681 456.704C407.122 456.413 405.588 457.525 403.25 456.67C401.836 456.153 399.658 457.187 398.244 456.67C396.306 455.961 389.611 455.814 388.431 454.43C387.25 453.046 387.37 450.859 389.237 450.043C389.766 449.85 390.312 449.687 390.871 449.554C393.996 448.603 400.325 441.435 403.649 441.068C405.299 441.009 406.936 441.304 408.378 441.919C411.656 443.031 417.443 443.91 418.873 446.732C419.987 448.93 423.036 453.144 420.719 455.293Z" fill="#2F2E41"/>
<path d="M449.51 288.684C450.462 290.245 451.294 291.857 452 293.511C460.449 312.582 461.156 333.423 461.505 353.809C461.476 357.123 461.698 360.436 462.169 363.726C462.523 365.813 463.082 367.922 462.722 370.007C462.41 371.81 461.415 373.589 461.812 375.38C461.99 376.183 462.441 376.928 462.619 377.732C462.756 378.613 462.728 379.507 462.535 380.38L461.402 387.571C460.757 391.668 459.268 395.613 459.349 399.746C459.404 402.565 459.46 405.389 459.827 408.191C460.201 411.036 460.896 413.859 460.932 416.722C460.959 418.866 460.615 420.998 460.392 423.134C460.079 426.149 460.008 429.18 460.179 432.204C460.312 434.534 460.625 436.953 462.073 438.932C460.451 440.917 458.845 442.696 456.247 443.667C450.968 445.642 444.911 444.973 439.207 444.266C439.523 443.368 440.012 442.35 439.556 441.496C439.288 441.083 438.958 440.701 438.577 440.359C437.332 438.848 436.467 437.133 436.038 435.323C435.348 433.176 434.657 430.865 436.075 428.804C436.563 428.07 436.779 427.227 436.693 426.387C435.512 412.867 431.987 398.88 435.233 385.612C435.58 384.196 435.992 382.788 436.186 381.35C436.361 379.283 436.39 377.208 436.273 375.138L436.205 372.256C436.036 369.18 436.182 366.029 435.459 362.987C434.942 360.808 433.975 358.619 435.167 356.399C435.693 355.368 435.628 354.185 434.99 353.2C432.484 349.455 430.469 345.485 428.98 341.364C428.671 340.212 428.248 339.084 427.715 337.994C426.988 336.845 426.152 335.748 425.217 334.714C422.39 331.217 420.7 327.158 419.04 323.153C419.217 322.785 419.081 322.274 418.62 322.327C418.164 322.426 417.772 322.676 417.531 323.021C415.258 325.628 415.067 329.106 414.965 332.355C414.792 335.373 414.852 338.398 415.146 341.41C415.34 342.988 415.662 344.553 415.828 346.133C416.046 349.082 415.991 352.04 415.664 354.981L414.504 369.453C414.346 370.649 414.431 371.86 414.753 373.032C415.499 375.06 415.862 377.177 415.829 379.302C415.523 388.044 416.409 396.787 418.468 405.354C419.035 407.719 419.691 410.07 420.172 412.449C421.305 418.056 421.461 423.769 421.613 429.458C421.707 432.955 421.774 436.578 420.159 439.794C419.528 440.786 419.065 441.848 418.783 442.95C418.777 443.519 418.689 444.084 418.52 444.634C418.046 445.675 416.623 446.118 415.345 446.356C412.942 446.802 410.477 446.951 408.025 446.801C407.449 446.792 406.881 446.685 406.355 446.484C405.44 446.08 404.955 445.223 404.259 444.575C402.759 443.176 400.264 442.748 398.897 441.253C397.188 439.384 397.905 436.675 398.923 434.469C399.94 432.263 401.2 429.867 400.324 427.617C399.292 424.965 395.632 423.538 394.65 420.872C397.454 410.121 390.568 399.003 391.159 388.001C391.296 385.438 391.817 382.894 391.828 380.329C391.855 373.721 388.5 367.291 389.052 360.7C390.454 343.95 383.768 327.228 380.936 310.611C380.399 308.13 380.198 305.605 380.338 303.086C380.758 298.926 383.022 295.055 385.743 291.585C387.694 289.099 390.039 286.666 393.269 285.504C395.929 284.546 398.91 284.55 401.797 284.569C409 284.617 416.203 284.664 423.405 284.775C428.306 284.716 433.202 285.09 438.013 285.89C441.909 286.651 445.554 288.201 449.51 288.684Z" fill="#2F2E41"/>
<path d="M421.731 181.367C416.747 176.206 408.05 174.455 400.651 177.123C392.813 180.146 388.953 187.405 382.059 191.674C380.491 192.621 378.821 193.453 377.068 194.158C376.033 194.62 374.929 194.973 373.783 195.208C372.494 195.437 371.149 195.405 369.866 195.655C367.422 196.235 365.34 197.54 364.037 199.31C363.392 200.234 362.677 201.126 361.895 201.98C361.175 202.671 360.28 203.229 359.518 203.89C356.777 206.27 356.033 209.687 355.408 212.898C353.263 214.723 350.922 216.39 348.413 217.881C347.625 218.372 346.749 218.763 345.816 219.042C343.404 219.674 340.745 218.87 338.689 217.671C336.633 216.472 334.959 214.891 332.933 213.66C331.07 215.81 329.124 217.967 327.14 220.045C326.84 220.441 326.384 220.743 325.845 220.903C325.472 221.916 326.366 222.965 327.035 223.873L330.626 228.748C331.813 230.522 333.269 232.17 334.96 233.654C336.676 235.146 339.019 236.067 341.531 236.236C343.117 236.224 344.687 235.981 346.166 235.519C353.008 233.66 359.291 230.693 365.8 228.171C366.979 227.627 368.3 227.314 369.656 227.257C371.05 227.227 372.296 227.952 372.703 229.029C373.45 232.075 374.192 235.109 375.218 238.1C376.186 240.922 377.085 243.758 377.915 246.608C378.47 248.352 378.866 250.127 379.101 251.918C379.208 252.935 379.219 253.957 379.231 254.977L379.369 267.31C379.384 268.638 378.447 269.466 377.726 270.659C376.621 272.511 376.454 274.638 377.262 276.587C377.667 277.549 378.301 278.438 378.75 279.387C379.835 281.682 379.793 284.209 379.736 286.665L379.607 292.293C379.574 292.526 379.626 292.762 379.757 292.971C380.182 293.508 381.207 293.193 381.855 292.831L385.112 291.007C389.471 291.492 393.874 291.664 398.269 291.52C410.771 291.374 423.276 291.776 435.749 292.481C439.91 292.717 444.212 292.972 448.146 291.85C450.142 291.281 451.981 290.371 454.021 289.915C454.863 289.809 455.662 289.543 456.353 289.14C457.494 288.286 457.191 286.789 456.726 285.59C456.318 284.541 455.856 283.508 455.338 282.49C454.805 281.554 454.37 280.584 454.039 279.589C453.414 277.344 454.022 274.75 452.292 272.922C448.42 268.83 451.161 262.535 449.536 257.554C449.01 255.943 448.233 254.389 447.74 252.771C447.431 251.755 447.235 250.719 447.04 249.685C446.53 247.448 446.277 245.177 446.285 242.903C446.332 241.764 446.509 240.633 446.686 239.503L447.916 231.657C449.454 233.977 450.523 236.481 451.083 239.074C452.202 242.946 453.581 246.767 455.212 250.519C456.14 252.782 457.067 255.045 458.069 257.287C458.704 258.563 459.192 259.883 459.529 261.231C459.75 262.318 459.757 263.427 459.912 264.521C460.249 266.869 461.266 269.119 462.88 271.09C463.179 271.547 463.672 271.901 464.269 272.086C464.672 272.146 465.087 272.133 465.483 272.046C469.83 271.353 474.038 270.177 477.987 268.551C478.827 268.271 479.558 267.81 480.098 267.219C481.161 265.823 479.973 264.079 479.456 262.494C478.902 260.796 479.031 258.752 477.375 257.613C471.609 253.649 474.471 245.6 471.585 239.944C471.078 238.951 470.488 237.986 470.051 236.971C469.717 236.196 469.475 235.397 469.231 234.601C467.216 228.013 465.06 221.456 462.762 214.928C460.379 208.16 460.634 201.11 457.635 194.503C457.071 193.119 456.334 191.784 455.437 190.519C454.422 189.198 453.065 188.069 451.461 187.211C447.107 184.885 442.713 182.905 437.599 182.061C432.486 181.218 426.95 181.348 421.731 181.367Z" fill="#D0CDE1"/>
<path d="M252.29 42.6522C251.762 42.6522 251.254 42.5602 250.766 42.3762C250.278 42.1922 249.878 41.9242 249.566 41.5722C249.262 41.2122 249.11 40.7842 249.11 40.2882C249.11 40.1682 249.122 40.0362 249.146 39.8922C249.162 39.8202 249.198 39.7602 249.254 39.7122C249.31 39.6562 249.374 39.6282 249.446 39.6282H251.078C251.19 39.6282 251.27 39.6562 251.318 39.7122C251.366 39.7682 251.398 39.8522 251.414 39.9642C251.414 40.3002 251.498 40.5442 251.666 40.6962C251.834 40.8482 252.09 40.9242 252.434 40.9242C253.274 40.9242 253.806 40.4122 254.03 39.3882L254.762 35.9202H250.886C250.798 35.9202 250.73 35.8922 250.682 35.8362C250.642 35.7802 250.63 35.7082 250.646 35.6202L250.898 34.4322C250.914 34.3442 250.958 34.2722 251.03 34.2162C251.102 34.1602 251.178 34.1322 251.258 34.1322H257.066C257.154 34.1322 257.222 34.1602 257.27 34.2162C257.31 34.2562 257.33 34.3082 257.33 34.3722C257.33 34.3882 257.326 34.4082 257.318 34.4322L256.25 39.4482C256.026 40.5122 255.59 41.3122 254.942 41.8482C254.302 42.3842 253.418 42.6522 252.29 42.6522ZM260.078 42.6522C259.222 42.6522 258.554 42.4602 258.074 42.0762C257.594 41.6842 257.354 41.1442 257.354 40.4562C257.354 40.2882 257.366 40.1202 257.39 39.9522C257.43 39.5922 257.506 39.2322 257.618 38.8722C257.85 38.0082 258.266 37.3442 258.866 36.8802C259.474 36.4082 260.27 36.1722 261.254 36.1722C262.102 36.1722 262.77 36.3682 263.258 36.7602C263.754 37.1522 264.002 37.6962 264.002 38.3922C264.002 38.5442 263.99 38.7042 263.966 38.8722C263.862 39.4162 263.786 39.7762 263.738 39.9522C263.498 40.8242 263.082 41.4922 262.49 41.9562C261.906 42.4202 261.102 42.6522 260.078 42.6522ZM260.258 41.1882C260.954 41.1882 261.414 40.7562 261.638 39.8922C261.742 39.4922 261.81 39.1722 261.842 38.9322C261.874 38.7082 261.89 38.5522 261.89 38.4642C261.89 38.1922 261.822 37.9882 261.686 37.8522C261.558 37.7082 261.354 37.6362 261.074 37.6362C260.394 37.6362 259.942 38.0682 259.718 38.9322C259.638 39.1962 259.57 39.5162 259.514 39.8922C259.482 40.0522 259.466 40.2122 259.466 40.3722C259.466 40.6442 259.526 40.8482 259.646 40.9842C259.774 41.1202 259.978 41.1882 260.258 41.1882ZM268.242 42.6522C267.81 42.6522 267.442 42.5802 267.138 42.4362C266.834 42.2922 266.606 42.0962 266.454 41.8482L266.37 42.2322C266.354 42.3202 266.31 42.3922 266.238 42.4482C266.174 42.5042 266.098 42.5322 266.01 42.5322H264.666C264.578 42.5322 264.51 42.5002 264.462 42.4362C264.43 42.3962 264.414 42.3522 264.414 42.3042C264.414 42.2802 264.418 42.2562 264.426 42.2322L266.106 34.3122C266.122 34.2242 266.166 34.1522 266.238 34.0962C266.31 34.0402 266.386 34.0122 266.466 34.0122H267.93C268.018 34.0122 268.086 34.0402 268.134 34.0962C268.166 34.1442 268.182 34.1922 268.182 34.2402C268.182 34.2642 268.178 34.2882 268.17 34.3122L267.63 36.8802C267.886 36.6482 268.154 36.4722 268.434 36.3522C268.714 36.2322 269.038 36.1722 269.406 36.1722C270.078 36.1722 270.602 36.3602 270.978 36.7362C271.354 37.1122 271.542 37.6322 271.542 38.2962C271.542 38.4802 271.522 38.7042 271.482 38.9682C271.442 39.2082 271.378 39.5042 271.29 39.8562C271.066 40.7522 270.694 41.4442 270.174 41.9322C269.662 42.4122 269.018 42.6522 268.242 42.6522ZM267.822 41.0442C268.19 41.0442 268.482 40.9322 268.698 40.7082C268.914 40.4842 269.082 40.1762 269.202 39.7842C269.282 39.5122 269.334 39.2642 269.358 39.0402C269.382 38.8962 269.394 38.7562 269.394 38.6202C269.394 38.3482 269.33 38.1402 269.202 37.9962C269.082 37.8522 268.874 37.7802 268.578 37.7802C268.218 37.7802 267.918 37.8922 267.678 38.1162C267.438 38.3322 267.274 38.6002 267.186 38.9202C267.098 39.2482 267.038 39.5482 267.006 39.8202C266.982 39.9482 266.97 40.0722 266.97 40.1922C266.97 40.7602 267.254 41.0442 267.822 41.0442ZM277.25 42.6522C276.65 42.6522 276.158 42.5722 275.774 42.4122C275.39 42.2522 275.11 42.0562 274.934 41.8242C274.766 41.5922 274.682 41.3722 274.682 41.1642L274.694 41.0562C274.702 40.9682 274.742 40.8962 274.814 40.8402C274.886 40.7842 274.958 40.7562 275.03 40.7562H276.398C276.446 40.7562 276.486 40.7762 276.518 40.8162C276.526 40.8242 276.594 40.8802 276.722 40.9842C276.85 41.0962 276.974 41.1842 277.094 41.2482C277.222 41.3122 277.386 41.3442 277.586 41.3442C277.842 41.3442 278.058 41.2882 278.234 41.1762C278.41 41.0562 278.498 40.8922 278.498 40.6842C278.498 40.5402 278.402 40.4202 278.21 40.3242C278.026 40.2282 277.662 40.1242 277.118 40.0122C275.982 39.7642 275.414 39.2602 275.414 38.5002C275.414 38.4282 275.43 38.2962 275.462 38.1042C275.534 37.7762 275.706 37.4642 275.978 37.1682C276.25 36.8722 276.61 36.6322 277.058 36.4482C277.506 36.2642 278.014 36.1722 278.582 36.1722C279.11 36.1722 279.558 36.2522 279.926 36.4122C280.302 36.5642 280.582 36.7562 280.766 36.9882C280.95 37.2202 281.042 37.4402 281.042 37.6482L281.03 37.7442C281.022 37.8242 280.982 37.8962 280.91 37.9602C280.846 38.0162 280.778 38.0442 280.706 38.0442H279.458C279.394 38.0442 279.342 38.0242 279.302 37.9842C279.238 37.9522 279.154 37.8922 279.05 37.8042C278.938 37.7002 278.826 37.6202 278.714 37.5642C278.61 37.5082 278.47 37.4802 278.294 37.4802C278.046 37.4802 277.85 37.5402 277.706 37.6602C277.562 37.7802 277.49 37.9362 277.49 38.1282C277.49 38.2642 277.582 38.3802 277.766 38.4762C277.95 38.5642 278.31 38.6602 278.846 38.7642C279.502 38.8842 279.974 39.0842 280.262 39.3642C280.558 39.6362 280.706 39.9642 280.706 40.3482C280.706 40.4602 280.694 40.5762 280.67 40.6962C280.542 41.2882 280.174 41.7642 279.566 42.1242C278.966 42.4762 278.194 42.6522 277.25 42.6522ZM284.195 42.6522C283.371 42.6522 282.735 42.4642 282.287 42.0882C281.847 41.7042 281.627 41.1442 281.627 40.4082C281.627 40.2082 281.655 39.9402 281.711 39.6042C281.767 39.3402 281.799 39.2002 281.807 39.1842C282.039 38.2402 282.487 37.5042 283.151 36.9762C283.823 36.4402 284.627 36.1722 285.563 36.1722C286.411 36.1722 287.047 36.3842 287.471 36.8082C287.903 37.2242 288.119 37.7882 288.119 38.5002C288.119 38.7642 288.087 39.0562 288.023 39.3762L287.963 39.6642C287.939 39.7522 287.891 39.8242 287.819 39.8802C287.747 39.9362 287.671 39.9642 287.591 39.9642H283.751L283.727 40.0482C283.703 40.1762 283.691 40.3002 283.691 40.4202C283.691 40.6922 283.755 40.9082 283.883 41.0682C284.019 41.2282 284.215 41.3082 284.471 41.3082C284.671 41.3082 284.843 41.2682 284.987 41.1882C285.131 41.1002 285.271 40.9962 285.407 40.8762C285.487 40.7962 285.551 40.7442 285.599 40.7202C285.655 40.6962 285.731 40.6842 285.827 40.6842H287.315C287.395 40.6842 287.455 40.7082 287.495 40.7562C287.519 40.7882 287.531 40.8242 287.531 40.8642C287.531 40.8882 287.527 40.9162 287.519 40.9482C287.463 41.1562 287.287 41.3962 286.991 41.6682C286.703 41.9322 286.315 42.1642 285.827 42.3642C285.339 42.5562 284.795 42.6522 284.195 42.6522ZM286.031 38.7762L286.043 38.7522C286.075 38.5602 286.091 38.4242 286.091 38.3442C286.091 38.0722 286.023 37.8602 285.887 37.7082C285.751 37.5562 285.551 37.4802 285.287 37.4802C284.967 37.4802 284.695 37.5962 284.471 37.8282C284.247 38.0522 284.095 38.3602 284.015 38.7522L284.003 38.7762H286.031ZM291.297 42.6522C290.473 42.6522 289.837 42.4642 289.389 42.0882C288.949 41.7042 288.729 41.1442 288.729 40.4082C288.729 40.2082 288.757 39.9402 288.813 39.6042C288.869 39.3402 288.901 39.2002 288.909 39.1842C289.141 38.2402 289.589 37.5042 290.253 36.9762C290.925 36.4402 291.729 36.1722 292.665 36.1722C293.513 36.1722 294.149 36.3842 294.573 36.8082C295.005 37.2242 295.221 37.7882 295.221 38.5002C295.221 38.7642 295.189 39.0562 295.125 39.3762L295.065 39.6642C295.041 39.7522 294.993 39.8242 294.921 39.8802C294.849 39.9362 294.773 39.9642 294.693 39.9642H290.853L290.829 40.0482C290.805 40.1762 290.793 40.3002 290.793 40.4202C290.793 40.6922 290.857 40.9082 290.985 41.0682C291.121 41.2282 291.317 41.3082 291.573 41.3082C291.773 41.3082 291.945 41.2682 292.089 41.1882C292.233 41.1002 292.373 40.9962 292.509 40.8762C292.589 40.7962 292.653 40.7442 292.701 40.7202C292.757 40.6962 292.833 40.6842 292.929 40.6842H294.417C294.497 40.6842 294.557 40.7082 294.597 40.7562C294.621 40.7882 294.633 40.8242 294.633 40.8642C294.633 40.8882 294.629 40.9162 294.621 40.9482C294.565 41.1562 294.389 41.3962 294.093 41.6682C293.805 41.9322 293.417 42.1642 292.929 42.3642C292.441 42.5562 291.897 42.6522 291.297 42.6522ZM293.133 38.7762L293.145 38.7522C293.177 38.5602 293.193 38.4242 293.193 38.3442C293.193 38.0722 293.125 37.8602 292.989 37.7082C292.853 37.5562 292.653 37.4802 292.389 37.4802C292.069 37.4802 291.797 37.5962 291.573 37.8282C291.349 38.0522 291.197 38.3602 291.117 38.7522L291.105 38.7762H293.133ZM295.686 42.5322C295.598 42.5322 295.53 42.5042 295.482 42.4482C295.434 42.3922 295.418 42.3202 295.434 42.2322L297.126 34.3122C297.142 34.2242 297.182 34.1522 297.246 34.0962C297.318 34.0402 297.398 34.0122 297.486 34.0122H298.866C298.954 34.0122 299.022 34.0402 299.07 34.0962C299.11 34.1362 299.13 34.1882 299.13 34.2522C299.13 34.2682 299.126 34.2882 299.118 34.3122L298.266 38.3082L300.27 36.4962C300.294 36.4802 300.33 36.4522 300.378 36.4122C300.426 36.3722 300.478 36.3442 300.534 36.3282C300.59 36.3042 300.654 36.2922 300.726 36.2922H302.442C302.514 36.2922 302.57 36.3122 302.61 36.3522C302.65 36.3842 302.67 36.4282 302.67 36.4842C302.67 36.5802 302.618 36.6722 302.514 36.7602L299.862 39.2202L301.626 42.1002C301.658 42.1402 301.674 42.1922 301.674 42.2562C301.674 42.3282 301.646 42.3922 301.59 42.4482C301.534 42.5042 301.458 42.5322 301.362 42.5322H299.79C299.63 42.5322 299.51 42.4682 299.43 42.3402L297.918 39.8922L297.426 42.2322C297.41 42.3202 297.366 42.3922 297.294 42.4482C297.23 42.5042 297.154 42.5322 297.066 42.5322H295.686ZM305.172 42.6522C304.348 42.6522 303.712 42.4642 303.264 42.0882C302.824 41.7042 302.604 41.1442 302.604 40.4082C302.604 40.2082 302.632 39.9402 302.688 39.6042C302.744 39.3402 302.776 39.2002 302.784 39.1842C303.016 38.2402 303.464 37.5042 304.128 36.9762C304.8 36.4402 305.604 36.1722 306.54 36.1722C307.388 36.1722 308.024 36.3842 308.448 36.8082C308.88 37.2242 309.096 37.7882 309.096 38.5002C309.096 38.7642 309.064 39.0562 309 39.3762L308.94 39.6642C308.916 39.7522 308.868 39.8242 308.796 39.8802C308.724 39.9362 308.648 39.9642 308.568 39.9642H304.728L304.704 40.0482C304.68 40.1762 304.668 40.3002 304.668 40.4202C304.668 40.6922 304.732 40.9082 304.86 41.0682C304.996 41.2282 305.192 41.3082 305.448 41.3082C305.648 41.3082 305.82 41.2682 305.964 41.1882C306.108 41.1002 306.248 40.9962 306.384 40.8762C306.464 40.7962 306.528 40.7442 306.576 40.7202C306.632 40.6962 306.708 40.6842 306.804 40.6842H308.292C308.372 40.6842 308.432 40.7082 308.472 40.7562C308.496 40.7882 308.508 40.8242 308.508 40.8642C308.508 40.8882 308.504 40.9162 308.496 40.9482C308.44 41.1562 308.264 41.3962 307.968 41.6682C307.68 41.9322 307.292 42.1642 306.804 42.3642C306.316 42.5562 305.772 42.6522 305.172 42.6522ZM307.008 38.7762L307.02 38.7522C307.052 38.5602 307.068 38.4242 307.068 38.3442C307.068 38.0722 307 37.8602 306.864 37.7082C306.728 37.5562 306.528 37.4802 306.264 37.4802C305.944 37.4802 305.672 37.5962 305.448 37.8282C305.224 38.0522 305.072 38.3602 304.992 38.7522L304.98 38.7762H307.008ZM309.561 42.5322C309.473 42.5322 309.405 42.5042 309.357 42.4482C309.309 42.3922 309.293 42.3202 309.309 42.2322L310.509 36.5922C310.525 36.5042 310.569 36.4322 310.641 36.3762C310.713 36.3202 310.793 36.2922 310.881 36.2922H312.261C312.349 36.2922 312.417 36.3202 312.465 36.3762C312.497 36.4242 312.513 36.4722 312.513 36.5202C312.513 36.5442 312.509 36.5682 312.501 36.5922L312.405 37.0722C312.821 36.5522 313.421 36.2922 314.205 36.2922H314.877C314.957 36.2922 315.021 36.3202 315.069 36.3762C315.101 36.4162 315.117 36.4642 315.117 36.5202C315.117 36.5442 315.113 36.5682 315.105 36.5922L314.853 37.8282C314.837 37.9162 314.793 37.9882 314.721 38.0442C314.649 38.1002 314.569 38.1282 314.481 38.1282H313.329C313.001 38.1282 312.725 38.2202 312.501 38.4042C312.285 38.5802 312.141 38.8322 312.069 39.1602L311.421 42.2322C311.405 42.3202 311.361 42.3922 311.289 42.4482C311.217 42.5042 311.137 42.5322 311.049 42.5322H309.561ZM317.434 42.6522C316.834 42.6522 316.342 42.5722 315.958 42.4122C315.574 42.2522 315.294 42.0562 315.118 41.8242C314.95 41.5922 314.866 41.3722 314.866 41.1642L314.878 41.0562C314.886 40.9682 314.926 40.8962 314.998 40.8402C315.07 40.7842 315.142 40.7562 315.214 40.7562H316.582C316.63 40.7562 316.67 40.7762 316.702 40.8162C316.71 40.8242 316.778 40.8802 316.906 40.9842C317.034 41.0962 317.158 41.1842 317.278 41.2482C317.406 41.3122 317.57 41.3442 317.77 41.3442C318.026 41.3442 318.242 41.2882 318.418 41.1762C318.594 41.0562 318.682 40.8922 318.682 40.6842C318.682 40.5402 318.586 40.4202 318.394 40.3242C318.21 40.2282 317.846 40.1242 317.302 40.0122C316.166 39.7642 315.598 39.2602 315.598 38.5002C315.598 38.4282 315.614 38.2962 315.646 38.1042C315.718 37.7762 315.89 37.4642 316.162 37.1682C316.434 36.8722 316.794 36.6322 317.242 36.4482C317.69 36.2642 318.198 36.1722 318.766 36.1722C319.294 36.1722 319.742 36.2522 320.11 36.4122C320.486 36.5642 320.766 36.7562 320.95 36.9882C321.134 37.2202 321.226 37.4402 321.226 37.6482L321.214 37.7442C321.206 37.8242 321.166 37.8962 321.094 37.9602C321.03 38.0162 320.962 38.0442 320.89 38.0442H319.642C319.578 38.0442 319.526 38.0242 319.486 37.9842C319.422 37.9522 319.338 37.8922 319.234 37.8042C319.122 37.7002 319.01 37.6202 318.898 37.5642C318.794 37.5082 318.654 37.4802 318.478 37.4802C318.23 37.4802 318.034 37.5402 317.89 37.6602C317.746 37.7802 317.674 37.9362 317.674 38.1282C317.674 38.2642 317.766 38.3802 317.95 38.4762C318.134 38.5642 318.494 38.6602 319.03 38.7642C319.686 38.8842 320.158 39.0842 320.446 39.3642C320.742 39.6362 320.89 39.9642 320.89 40.3482C320.89 40.4602 320.878 40.5762 320.854 40.6962C320.726 41.2882 320.358 41.7642 319.75 42.1242C319.15 42.4762 318.378 42.6522 317.434 42.6522Z" fill="#75B204"/>
<line x1="249.104" y1="81.9219" x2="346.398" y2="81.9219" stroke="black"/>
<line x1="249.11" y1="107.28" x2="346.404" y2="107.28" stroke="black"/>
<line x1="249.116" y1="132.639" x2="346.41" y2="132.639" stroke="black"/>
<line x1="249.121" y1="157.997" x2="346.415" y2="157.997" stroke="black"/>
<line x1="249.126" y1="183.355" x2="346.421" y2="183.355" stroke="black"/>
<line x1="387.665" y1="82.6465" x2="436.306" y2="82.6465" stroke="black"/>
<line x1="387.665" y1="107.28" x2="436.306" y2="107.28" stroke="black"/>
<line x1="387.665" y1="131.914" x2="436.306" y2="131.914" stroke="black"/>
<rect x="141.103" y="34.7855" width="58.9693" height="68.0218" transform="rotate(120.089 141.103 34.7855)" stroke="black"/>
<rect x="140.585" y="81.0645" width="40" height="48" transform="rotate(120.089 140.585 81.0645)" fill="#540D6E"/>
<circle cx="271" cy="237" r="26" fill="#FFAE00"/>
<rect x="22.5" y="146.5" width="141" height="6" stroke="black"/>
<rect x="158" y="138" width="15" height="30" fill="#C4C4C4"/>
<path d="M185.5 384L241.359 441.75H129.641L185.5 384Z" fill="#75B204"/>
<path d="M116.821 436.25L171.5 379.719L226.179 436.25H116.821Z" stroke="black"/>
<rect x="36" y="474" width="474" height="101" fill="#86BBD8"/>
<rect y="486" width="218" height="78" fill="white"/>
<rect x="18" y="500" width="168" height="50" fill="#36393B"/>
<defs>
<filter id="filter0_d" x="223" y="2" width="254.156" height="286.217" filterUnits="userSpaceOnUse" color-interpolation-filters="sRGB">
<feFlood flood-opacity="0" result="BackgroundImageFix"/>
<feColorMatrix in="SourceAlpha" type="matrix" values="0 0 0 0 0 0 0 0 0 0 0 0 0 0 0 0 0 0 127 0"/>
<feOffset dy="4"/>
<feGaussianBlur stdDeviation="2"/>
<feColorMatrix type="matrix" values="0 0 0 0 0 0 0 0 0 0 0 0 0 0 0 0 0 0 0.25 0"/>
<feBlend mode="normal" in2="BackgroundImageFix" result="effect1_dropShadow"/>
<feBlend mode="normal" in="SourceGraphic" in2="effect1_dropShadow" result="shape"/>
</filter>
</defs>
</svg>
