<svg width="543" height="590" viewBox="0 0 543 590" fill="none" xmlns="http://www.w3.org/2000/svg">
<rect x="471" y="187.009" width="58" height="38" fill="#75B204"/>
<path d="M222.5 589.009C345.383 589.009 445 582.741 445 575.009C445 567.277 345.383 561.009 222.5 561.009C99.6166 561.009 0 567.277 0 575.009C0 582.741 99.6166 589.009 222.5 589.009Z" fill="#3F3D56"/>
<path d="M98.5 383.009C105.404 383.009 111 377.412 111 370.509C111 363.605 105.404 358.009 98.5 358.009C91.5964 358.009 86 363.605 86 370.509C86 377.412 91.5964 383.009 98.5 383.009Z" fill="#DAA98E"/>
<path d="M81.3143 395.009C81.5724 395.278 81.7886 395.586 81.9552 395.922C83.6742 399.124 83.696 402.956 83.7768 406.609C83.8678 410.721 84.0874 414.829 84.307 418.936L84.9638 431.219C85.0265 432.393 85.0894 433.568 85.25 434.732C86.0226 434.931 86.0546 435.954 85.965 436.766C85.412 441.778 84.0359 446.938 85.477 451.762C85.5321 452.01 85.6481 452.24 85.814 452.43C85.0876 452.195 84.3099 452.184 83.5776 452.399C82.8592 452.554 82.1685 452.823 81.4527 452.99C80.5418 453.203 79.5092 453.294 78.8878 454.009C78.1856 451.841 77.6264 449.628 77.2141 447.383C76.8729 445.344 76.78 443.223 75.969 441.328C75.6415 440.562 75.204 439.853 74.8048 439.124C72.7044 435.291 71.676 430.955 70.6709 426.68C70.2197 424.654 70.1115 422.563 70.3511 420.498C70.4939 419.557 70.5777 418.606 70.6021 417.654C70.5381 416.648 70.4095 415.649 70.2173 414.661C69.793 411.763 69.9917 408.805 70.7996 405.995C71.5523 403.385 72.2122 400.639 73.7862 398.446C75.3603 396.254 78.6584 395.046 81.3143 395.009Z" fill="#540D6E"/>
<path d="M87.8466 549.448C87.4903 550.147 87.1802 550.868 86.9183 551.607C86.2235 553.647 86.1185 555.835 86.0197 557.988C85.9722 558.403 86.0108 558.824 86.1329 559.224C86.4299 559.998 87.286 560.39 88.0862 560.606C91.4378 561.507 94.9716 560.659 98.4284 560.349C101.821 560.046 105.278 560.265 108.601 559.517C109.092 559.424 109.567 559.259 110.01 559.027C110.852 558.479 111.48 557.658 111.789 556.702C111.891 556.457 111.959 556.2 111.992 555.937C112.101 554.804 111.114 553.82 110.039 553.448C108.964 553.075 107.795 553.137 106.663 553.02C101.877 552.528 98.0155 548.885 97.245 544.133C97.2049 543.886 91.6487 544.032 91.0639 544.353C90.3794 544.729 89.9651 545.666 89.5795 546.3C88.9564 547.324 88.3788 548.373 87.8466 549.448Z" fill="#3F3D56"/>
<path d="M101.847 549.448C101.49 550.147 101.18 550.868 100.918 551.607C100.224 553.647 100.119 555.835 100.02 557.988C99.9722 558.403 100.011 558.824 100.133 559.224C100.43 559.998 101.286 560.39 102.086 560.606C105.438 561.507 108.972 560.659 112.428 560.349C115.821 560.046 119.278 560.265 122.601 559.517C123.092 559.424 123.567 559.259 124.01 559.027C124.852 558.479 125.48 557.658 125.789 556.702C125.891 556.457 125.959 556.2 125.992 555.937C126.101 554.804 125.114 553.82 124.039 553.448C122.964 553.075 121.795 553.137 120.663 553.02C115.877 552.528 112.016 548.885 111.245 544.133C111.205 543.886 105.649 544.032 105.064 544.353C104.379 544.729 103.965 545.666 103.579 546.3C102.956 547.324 102.379 548.373 101.847 549.448Z" fill="#3F3D56"/>
<path d="M125.083 457.925C125.223 459.216 124.965 460.54 125.275 461.807C125.509 462.759 126.051 463.624 126.37 464.555C126.686 465.634 126.849 466.746 126.854 467.863C126.9 468.799 126.821 469.938 125.91 470.377C125.51 470.57 125.031 470.574 124.614 470.735C124.198 470.897 123.841 471.356 124.079 471.706C124.28 472.001 124.735 472.004 125.108 472.074C125.48 472.143 125.891 472.495 125.674 472.78C125.587 472.873 125.472 472.94 125.342 472.972C124.961 473.077 124.6 473.234 124.272 473.44C123.941 473.655 123.771 474.021 123.832 474.386C123.878 474.561 124.009 474.707 124.188 474.783C124.368 474.858 124.575 474.854 124.751 474.771C124.584 475.096 124.493 475.449 124.483 475.807C125.94 476.377 127.58 475.632 128.952 474.907C129.546 474.607 130.12 474.274 130.671 473.911C132.913 472.336 134.154 469.854 133.985 467.282C133.921 466.644 133.814 466.011 133.663 465.385C133.45 464.298 133.17 463.222 132.822 462.164C132.43 461.047 131.891 459.979 131.429 458.885C130.445 456.554 129.811 454.113 128.924 451.749C128.898 451.521 128.769 451.313 128.568 451.175C128.366 451.037 128.11 450.981 127.862 451.022C126.863 450.974 125.862 451.058 124.889 451.271C124.301 451.427 123.336 451.771 123.073 452.331C122.835 452.835 123.233 453.287 123.486 453.72C124.313 455.014 124.855 456.442 125.083 457.925Z" fill="#DAA98E"/>
<path d="M127.999 496.963C128.084 508.01 124.236 518.807 119.724 529.191C117.937 533.301 116.041 537.376 114.036 541.415C112.849 543.809 111.512 546.464 112.784 548.827C109.123 547.664 105.375 546.977 101.511 547.514C102.982 545.011 102.843 542.096 102.909 539.309C103.037 535.525 103.524 531.755 104.368 528.035C105.662 522.376 107.883 516.892 110.968 511.737C111.593 510.651 112.024 509.493 112.247 508.302C112.648 505.652 112.463 502.964 111.703 500.371C110.293 494.625 107.616 489.147 103.809 484.218C103.797 484.328 103.785 484.439 103.771 484.549C103.54 486.191 103.209 487.823 102.778 489.437C101.914 492.859 100.906 496.282 101.057 499.722C101.219 503.37 100.948 507.023 100.248 510.627C100.026 512.042 99.5847 513.428 98.9351 514.749C98.5127 515.54 97.9617 516.284 97.6291 517.102C97.2992 518.049 97.1269 519.029 97.1169 520.015C96.6242 528.333 97.1097 538.978 99.1463 547.132C95.7143 547 92.3038 547.649 89.2788 549.009C86.8174 543.21 85.2493 534.974 84.0769 528.867C82.7492 521.652 83.019 514.296 84.873 507.163C85.4497 504.783 85.6658 502.352 85.5163 499.927C85.2541 495.097 83.8317 490.372 82.4189 485.684C81.7004 483.304 80.9819 480.924 80.2634 478.543C79.2414 475.152 78.2179 471.76 77.1927 468.368C76.513 466.112 75.8261 463.807 76.0397 461.487C76.1898 460.214 76.5097 458.96 76.9936 457.747C78.5228 453.619 80.8091 449.714 83.771 446.172C95.5658 446.725 107.504 445.803 119.282 445.047C119.854 444.952 120.449 445.036 120.952 445.284C121.352 445.624 121.59 446.074 121.622 446.551C123.098 453.529 124.573 460.508 126.047 467.486C126.765 470.4 127.186 473.36 127.307 476.334C127.329 479.297 126.753 482.25 126.887 485.211C127.066 489.2 127.969 492.972 127.999 496.963Z" fill="#36393B"/>
<path d="M111.92 391.222C110.462 389.377 108.481 387.925 106.189 387.019C104.869 386.589 103.505 386.283 102.117 386.105L96.6792 385.236C95.3465 385.023 93.9202 384.82 92.6838 385.32C92.0519 385.61 91.4766 385.992 90.9808 386.451C89.0908 388.042 87.2593 389.792 84.8897 390.71C84.241 390.962 83.5625 391.146 82.9148 391.399C80.2635 392.437 78.2813 394.604 77.155 397.02C75.9735 399.554 75.9392 402.301 76.0325 405.053C76.0296 406.002 76.1323 406.949 76.339 407.88C76.6134 408.766 76.9581 409.632 77.3704 410.472C78.1213 412.267 78.7502 414.102 79.2536 415.967C80.6623 420.869 81.8334 425.82 82.767 430.822C82.8484 431.541 83.081 432.239 83.4522 432.878C83.9769 433.514 84.6118 434.068 85.3321 434.519C85.9025 434.949 86.4297 435.424 86.9075 435.938C87.1406 436.158 87.3114 436.425 87.4053 436.718C87.5817 437.458 86.8628 438.091 86.2793 438.631C85.0673 439.755 84.1911 441.142 83.734 442.66C83.4492 442.971 83.3048 443.369 83.3297 443.773C83.4464 444.053 83.4899 444.354 83.4567 444.652C83.3448 444.924 83.17 445.171 82.9441 445.376C82.4183 445.998 82.2123 446.796 82.3787 447.566C86.6033 449.235 91.1245 450.197 95.7249 450.406C96.8514 450.454 97.9824 450.454 99.1018 450.58C99.9 450.669 100.689 450.822 101.488 450.907C102.65 451.006 103.818 451.033 104.984 450.988C111.051 450.878 117.295 450.736 122.865 448.549C123.39 445.952 122.26 443.306 121.551 440.745C120.423 436.673 120.139 432.45 119.299 428.32C118.725 425.494 117.891 422.712 117.413 419.871C116.934 417.03 116.822 414.084 117.681 411.318C118.443 408.867 118.673 406.372 119.462 403.928C120.251 401.484 120.804 398.835 119.913 396.42C118.809 393.426 115.39 391.057 111.92 391.222Z" fill="#540D6E"/>
<path d="M120.714 395.832C120.995 396.077 121.237 396.365 121.433 396.686C123.426 399.724 123.784 403.54 124.184 407.172C124.636 411.26 125.215 415.333 125.794 419.405L127.525 431.583C127.691 432.746 127.856 433.912 128.118 435.057C128.906 435.188 129.027 436.204 129.009 437.02C128.898 442.062 127.98 447.323 129.838 452.001C129.915 452.244 130.051 452.463 130.232 452.637C129.488 452.467 128.713 452.524 128.002 452.802C127.3 453.02 126.636 453.349 125.937 453.578C125.048 453.87 124.028 454.051 123.471 454.817C122.582 452.72 121.831 450.564 121.223 448.364C120.704 446.362 120.426 444.258 119.452 442.441C119.058 441.708 118.56 441.039 118.099 440.348C115.67 436.714 114.265 432.485 112.889 428.315C112.262 426.336 111.971 424.262 112.029 422.185C112.088 421.234 112.088 420.28 112.029 419.329C111.877 418.333 111.662 417.349 111.383 416.381C110.707 413.532 110.645 410.568 111.203 407.698C111.724 405.032 112.141 402.238 113.516 399.916C114.892 397.594 118.072 396.102 120.714 395.832Z" fill="#540D6E"/>
<path d="M108.838 361.505C109.447 359.321 108.249 357.047 106.816 355.273C105.276 353.367 103.286 351.647 100.856 351.168C98.8821 350.779 96.8362 351.249 94.8287 351.092C93.0493 350.954 91.3443 350.327 89.5741 350.102C87.9728 349.933 86.355 349.994 84.7713 350.281C83.2659 350.497 81.7946 350.9 80.3932 351.482C75.0609 353.802 71.9365 359.532 71.2115 365.214C70.4865 370.897 71.7578 376.622 73.0215 382.213L74.1638 387.267C75.3527 392.527 76.5457 397.815 76.8638 403.194C77.1819 408.574 76.5884 414.096 74.3349 419.009C81.6209 415.166 87.2662 408.89 90.2499 401.315C91.0602 399.235 91.6601 397.077 92.5576 395.031C93.3299 393.272 94.3185 391.605 95.0029 389.81C95.7749 387.783 96.1455 385.63 96.095 383.466C96.056 381.84 95.7789 380.221 95.8272 378.595C95.8755 376.969 96.2967 375.273 97.4413 374.097C98.4588 373.052 99.9045 372.55 101.216 371.892C103.278 370.852 105.079 369.376 106.49 367.57C107.315 366.514 107.359 366.063 107.569 364.845C107.773 363.659 108.517 362.655 108.838 361.505Z" fill="#996706"/>
<path fill-rule="evenodd" clip-rule="evenodd" d="M323.5 257.009C306.225 257.009 291.104 246.331 282.791 230.365C280.414 230.789 277.979 231.009 275.5 231.009C256.562 231.009 240.212 218.176 232.584 199.611C213.14 192.722 199 171.778 199 147.009C199 116.633 220.266 92.0088 246.5 92.0088C248.706 92.0088 250.876 92.1829 253.002 92.5198C253.001 92.3496 253 92.1793 253 92.0088C253 61.6331 274.266 37.0088 300.5 37.0088C309.255 37.0088 317.457 39.7515 324.5 44.5354C331.543 39.7515 339.745 37.0088 348.5 37.0088C357.255 37.0088 365.457 39.7515 372.5 44.5354C379.543 39.7515 387.745 37.0088 396.5 37.0088C405.255 37.0088 413.457 39.7515 420.5 44.5354C427.543 39.7515 435.745 37.0088 444.5 37.0088C470.734 37.0088 492 61.6331 492 92.0088V92.0118C518.003 92.3223 539 116.826 539 147.009C539 168.981 527.872 187.945 511.786 196.755C511.928 198.484 512 200.237 512 202.009C512 232.384 490.734 257.009 464.5 257.009C455.951 257.009 447.93 254.394 441 249.817C434.07 254.394 426.049 257.009 417.5 257.009C408.951 257.009 400.93 254.394 394 249.817C387.07 254.394 379.049 257.009 370.5 257.009C361.951 257.009 353.93 254.394 347 249.817C340.07 254.394 332.049 257.009 323.5 257.009ZM204.5 271.009C214.717 271.009 223 262.054 223 251.009C223 239.963 214.717 231.009 204.5 231.009C194.283 231.009 186 239.963 186 251.009C186 262.054 194.283 271.009 204.5 271.009ZM186 283.509C186 290.412 180.404 296.009 173.5 296.009C166.596 296.009 161 290.412 161 283.509C161 276.605 166.596 271.009 173.5 271.009C180.404 271.009 186 276.605 186 283.509ZM161 312.509C161 316.651 157.642 320.009 153.5 320.009C149.358 320.009 146 316.651 146 312.509C146 308.367 149.358 305.009 153.5 305.009C157.642 305.009 161 308.367 161 312.509Z" fill="#F0F0F0"/>
<path d="M344.358 97.1417L288.236 68.1699C284.404 66.1914 282.895 61.4686 284.865 57.6211L298.087 31.8079C298.475 31.0504 299.156 30.4862 299.971 30.2478L344.205 17.2992C347.877 16.2242 351.746 18.2212 353.011 21.8454L367.545 63.4663C368.279 65.5675 368.12 67.8792 367.106 69.8594L354.865 93.7575C353.919 95.6051 352.28 96.9996 350.31 97.6343C348.339 98.269 346.198 98.0918 344.358 97.1417Z" fill="#DFE0EB"/>
<path d="M298.28 75.3391C294.259 73.2717 292.676 68.3364 294.743 64.3158L313.783 27.2889C315.851 23.2684 320.786 21.685 324.806 23.7525L361.833 42.7921C365.854 44.8596 367.437 49.7949 365.37 53.8154L346.33 90.8423C344.263 94.8629 339.327 96.4462 335.307 94.3788L298.28 75.3391Z" fill="#540D6E"/>
<path d="M318.252 78.6656L293.288 45.611C292.974 45.1953 292.468 44.97 291.948 45.0143C291.428 45.0587 290.968 45.3665 290.729 45.8292L276.524 73.3848C275.95 74.4982 275.843 75.7934 276.226 76.9855C276.61 78.1776 277.452 79.1689 278.568 79.7414L340.46 111.486C341.577 112.059 342.875 112.166 344.07 111.783C345.265 111.401 346.259 110.56 346.833 109.447L360.795 82.3635C361.086 81.7988 361.066 81.1245 360.741 80.5784C360.416 80.0324 359.833 79.6913 359.196 79.6756L318.252 78.6656Z" fill="#86BBD8"/>
<path d="M312.633 40.3408L327.06 47.7592L326.011 49.7994L311.584 42.381L312.633 40.3408Z" fill="#F2F2F2"/>
<path d="M307.646 47.1738L350.489 69.2043L349.89 70.3701L307.047 48.3396L307.646 47.1738Z" fill="#F2F2F2"/>
<path d="M305.623 51.1084L348.466 73.1389L347.866 74.3047L305.023 52.2742L305.623 51.1084Z" fill="#F2F2F2"/>
<path d="M303.6 55.043L346.443 77.0735L345.843 78.2393L303 56.2088L303.6 55.043Z" fill="#F2F2F2"/>
<path fill-rule="evenodd" clip-rule="evenodd" d="M305.108 20.3512C307.129 16.4228 311.954 14.8757 315.884 16.8958C319.804 18.9248 321.349 23.7368 319.341 27.6664C317.32 31.5948 312.496 33.1418 308.565 31.1218C304.635 29.1018 303.087 24.2796 305.108 20.3512ZM307.041 21.5304L308.813 27.0504L318.762 23.866L318.265 22.3177L309.866 25.0106L308.59 21.0337L307.041 21.5304Z" fill="#75B204"/>
<path fill-rule="evenodd" clip-rule="evenodd" d="M426.5 183.113C432.934 183.113 437 177.642 437 168.96C437 157.151 427.953 149.009 414.898 149.009C401.316 149.009 392 158.17 392 171.514C392 185.187 401.129 193.997 415.391 194.008C417.862 194.021 420.327 193.754 422.738 193.212C423.717 192.975 424.327 192.002 424.114 191.018C423.901 190.035 422.941 189.402 421.953 189.592C419.849 189.962 417.715 190.143 415.578 190.131C403.848 190.131 396.312 182.937 396.312 171.667C396.312 160.642 403.93 152.852 414.617 152.852C425.422 152.852 432.734 159.377 432.734 169.136C432.734 175.252 430.672 179.188 427.426 179.188C425.551 179.188 424.508 178.052 424.508 176.166V161.017H419.832V164.274H419.363C418.285 161.896 415.836 160.443 412.953 160.443C407.34 160.443 403.496 165.001 403.496 171.55C403.496 178.368 407.316 182.949 413.035 182.949C416.246 182.949 418.637 181.461 419.797 178.743H420.266C420.699 181.356 423.207 183.113 426.5 183.113ZM413.902 178.614C410.586 178.614 408.547 175.99 408.547 171.655C408.547 167.308 410.551 164.754 413.961 164.754C417.395 164.754 419.598 167.39 419.598 171.655C419.598 175.919 417.395 178.614 413.902 178.614Z" fill="#FFAE00"/>
<rect x="519.5" y="195.509" width="13" height="39" stroke="black"/>
<rect x="394.5" y="13.5088" width="9" height="47" stroke="black"/>
<line x1="399" y1="78.5" x2="514" y2="78.5" stroke="black"/>
<circle cx="532.5" cy="80.5" r="10.5" fill="#E3E5E6"/>
<line x1="413.5" x2="413.5" y2="117.017" stroke="black"/>
<path d="M336 132H448.5C464.878 132 473.066 132 479.005 135.829C481.877 137.68 484.32 140.123 486.171 142.995C490 148.934 490 157.122 490 173.5V173.5C490 189.878 490 198.066 486.171 204.005C484.32 206.877 481.877 209.32 479.005 211.171C473.066 215 464.878 215 448.5 215H336.321" stroke="#1A1A1A" stroke-width="4" stroke-linecap="round" stroke-linejoin="round"/>
<circle r="7" transform="matrix(-1 0 0 1 329 215)" fill="#E5E5E5" stroke="#1A1A1A" stroke-width="4" stroke-linecap="round" stroke-linejoin="round"/>
<path d="M344 140L336 132L344 124" stroke="#1A1A1A" stroke-width="4" stroke-linecap="round" stroke-linejoin="round"/>
</svg>
