<svg width="594" height="556" viewBox="0 0 594 556" fill="none" xmlns="http://www.w3.org/2000/svg">
<path d="M352.157 365.257C352.157 365.257 339.523 360.833 336.863 364.372C336.863 364.372 338.858 374.99 330.878 376.317C322.899 377.644 319.574 386.935 330.878 387.819C342.183 388.704 349.497 386.05 353.487 386.05C357.477 386.05 353.487 376.759 353.487 376.759L352.157 365.257Z" fill="#2F2E41"/>
<path fill-rule="evenodd" clip-rule="evenodd" d="M123.698 69L121.545 67.0159C113.902 59.8449 108.855 55.1906 108.855 49.3927C108.817 47.1641 109.663 45.0144 111.201 43.4335C112.739 41.8526 114.837 40.975 117.019 41.0005C119.597 41.0146 122.04 42.1864 123.698 44.2049C125.356 42.1863 127.798 41.0145 130.377 41.0005C132.558 40.975 134.657 41.8526 136.195 43.4335C137.732 45.0144 138.579 47.164 138.54 49.3927C138.54 55.1906 133.494 59.845 125.85 67.0159L123.698 69Z" stroke="#3F3D56" stroke-width="2"/>
<path d="M121.224 78L118.713 75.8033C109.795 67.864 103.908 62.711 103.908 56.292C103.863 53.8245 104.85 51.4446 106.644 49.6943C108.438 47.9439 110.887 46.9723 113.432 47.0006C116.44 47.0161 119.29 48.3135 121.224 50.5483C123.158 48.3134 126.008 47.0161 129.016 47.0006C131.561 46.9723 134.009 47.9439 135.804 49.6942C137.598 51.4445 138.585 53.8245 138.54 56.2919C138.54 62.7111 132.653 67.8641 123.735 75.8033L121.224 78Z" fill="#FF6584"/>
<rect x="239.479" y="317" width="70.2604" height="71" fill="#222F65"/>
<path d="M283.948 221C283.948 221 259.948 233.838 264.889 237.506C269.83 241.174 289.948 223.201 289.948 223.201L283.948 221Z" fill="#7E5640"/>
<path d="M301.196 287.835C301.196 287.835 285.279 285.275 283.568 289.12C283.568 289.12 289.72 299.254 281.18 301.679C272.639 304.104 272.286 313.685 285.399 312.961C298.513 312.238 305.815 308.604 310.328 308.043C314.842 307.481 306.92 298.93 306.92 298.93L301.196 287.835Z" fill="#2F2E41"/>
<path d="M357.24 107C362.159 107 366.146 102.971 366.146 98C366.146 93.0294 362.159 89 357.24 89C352.321 89 348.333 93.0294 348.333 98C348.333 102.971 352.321 107 357.24 107Z" fill="#2F2E41"/>
<path d="M355.261 142C367.284 142 377.031 132.15 377.031 120C377.031 107.85 367.284 98 355.261 98C343.237 98 333.49 107.85 333.49 120C333.49 132.15 343.237 142 355.261 142Z" fill="#2F2E41"/>
<path d="M348 138.859C348 138.859 348.54 152.289 344.766 153.378C340.992 154.467 365.791 161 365.791 161L370.104 155.918C370.104 155.918 365.252 137.77 366.33 136.318C367.409 134.866 348 138.859 348 138.859Z" fill="#7E5640"/>
<path d="M355.26 142C363.458 142 370.104 135.284 370.104 127C370.104 118.716 363.458 112 355.26 112C347.062 112 340.417 118.716 340.417 127C340.417 135.284 347.062 142 355.26 142Z" fill="#7E5640"/>
<path d="M331.447 161L326.664 162.732L314.154 183.86L281.042 221.613C281.042 221.613 285.457 228.194 289.136 226.808C292.815 225.423 320.409 196.329 320.409 196.329L338.437 170.005L331.447 161Z" fill="#D0CDE1"/>
<path d="M329.169 202L318.103 219.635C318.103 219.635 238.082 232.591 248.297 252.745C258.512 272.899 270.005 302.41 275.964 301.691C281.923 300.971 314.698 285.136 315.975 280.457C317.251 275.778 286.605 253.825 286.605 253.825L337.257 245.547C337.257 245.547 344.493 274.339 335.128 294.133C325.764 313.927 320.231 367.551 326.616 368.271C333 368.991 349.175 373.31 356.411 369.351C363.647 365.392 367.052 278.657 367.052 278.657C367.052 278.657 382.375 221.794 373.011 215.316C363.647 208.838 329.169 202 329.169 202Z" fill="#75B204"/>
<path d="M356.745 120C365.216 120 372.083 115.971 372.083 111C372.083 106.029 365.216 102 356.745 102C348.274 102 341.406 106.029 341.406 111C341.406 115.971 348.274 120 356.745 120Z" fill="#2F2E41"/>
<path d="M374.408 219.601C374.408 219.601 361.437 222.541 363.082 226.447C364.728 230.353 380.283 225.985 379.731 221.546C379.178 217.108 374.408 219.601 374.408 219.601Z" fill="#7E5640"/>
<path d="M387.625 165L395.702 168.988C395.702 168.988 423.074 199.444 413.651 206.333C404.228 213.222 379.997 227 379.997 227C379.997 227 371.92 217.573 374.612 217.211C377.304 216.848 398.843 202.345 398.843 202.345L379.997 174.064L387.625 165Z" fill="#D0CDE1"/>
<path d="M373.085 154.809C373.085 154.809 357.438 158.75 349.614 154.809C341.791 150.869 323.101 162.332 320.059 167.347C317.016 172.362 331.359 177.377 331.359 177.377C331.359 177.377 327.264 187.061 328.1 191.884C328.969 196.899 327.448 207.108 327.448 207.108C327.448 207.108 365.846 227.958 374.389 218.571C375.692 217.138 386.558 183.466 386.558 183.466L401.771 170.929C401.771 170.929 392.209 159.466 386.558 158.391C380.908 157.317 373.085 154.809 373.085 154.809Z" fill="#86BBD8"/>
<rect x="122.708" y="388" width="292.917" height="62" fill="#FFAE00"/>
<rect y="450" width="540.312" height="106" fill="#CCD2E3"/>
<rect x="-0.5" y="0.5" width="2" height="131" transform="matrix(-1 0 0 1 92 47)" stroke="#75B204"/>
<rect x="71.5" y="127.5" width="146.448" height="11" stroke="black"/>
<rect x="34.146" y="95.5" width="146.448" height="12" stroke="black"/>
<path d="M577.417 227C577.417 235.013 570.99 241.5 563.073 241.5C555.156 241.5 548.729 235.013 548.729 227C548.729 218.987 555.156 212.5 563.073 212.5C570.99 212.5 577.417 218.987 577.417 227Z" fill="#540D6E" stroke="black"/>
<path d="M526.948 36.5C526.948 56.3623 510.135 72.5 489.349 72.5C468.563 72.5 451.75 56.3623 451.75 36.5C451.75 16.6377 468.563 0.5 489.349 0.5C510.135 0.5 526.948 16.6377 526.948 36.5Z" fill="#540D6E" stroke="black"/>
<rect x="468" y="31" width="8.90625" height="89" fill="#F2F2F2"/>
<rect x="456.5" y="71.5" width="14.8333" height="17" stroke="black"/>
<rect x="578.417" y="193.5" width="14.8333" height="17" stroke="black"/>
<line x1="527.948" y1="78" x2="527.948" y2="202" stroke="black"/>
<path d="M387 332H426.5C449.127 332 460.441 332 467.471 339.029C474.5 346.059 474.5 357.373 474.5 380V381C474.5 403.627 474.5 414.941 481.529 421.971C488.559 429 499.873 429 522.5 429H562" stroke="#1A1A1A" stroke-width="4" stroke-linecap="round" stroke-linejoin="round"/>
<circle cx="569" cy="429" r="7" fill="#E5E5E5" stroke="#1A1A1A" stroke-width="4" stroke-linecap="round" stroke-linejoin="round"/>
<path d="M395 340L387 332L395 324" stroke="#1A1A1A" stroke-width="4" stroke-linecap="round" stroke-linejoin="round"/>
</svg>
