<svg width="1107" height="635" viewBox="0 0 1107 635" fill="none" xmlns="http://www.w3.org/2000/svg">
<rect width="1107" height="635" fill="#86BBD8"/>
<rect x="189" y="82" width="727" height="471" fill="white"/>
<rect x="189" y="82" width="727" height="471" fill="white"/>
<rect x="458" y="493" width="189.13" height="36" fill="#540D6E"/>
<circle cx="912.5" cy="90.5" r="27.5" fill="#75B204"/>
<circle cx="958" cy="175" r="10" fill="#C4C4C4"/>
<line x1="881" y1="142.5" x2="1018" y2="142.5" stroke="black"/>
<rect x="289" y="117" width="536" height="350" fill="#36393B"/>
<rect x="852" y="432" width="108" height="95" fill="#FFAE00"/>
<rect x="903" y="446" width="70" height="68.2697" fill="white"/>
<rect x="916" y="457" width="46" height="45.1461" fill="#540D6E"/>
<path d="M513.109 512.188L514.859 503.625H516.82L514.195 515H512.305L510.141 506.695L507.93 515H506.031L503.406 503.625H505.367L507.133 512.172L509.305 503.625H510.961L513.109 512.188ZM522.867 515C522.784 514.839 522.711 514.576 522.648 514.211C522.044 514.841 521.305 515.156 520.43 515.156C519.581 515.156 518.888 514.914 518.352 514.43C517.815 513.945 517.547 513.346 517.547 512.633C517.547 511.732 517.88 511.042 518.547 510.562C519.219 510.078 520.177 509.836 521.422 509.836H522.586V509.281C522.586 508.844 522.464 508.495 522.219 508.234C521.974 507.969 521.602 507.836 521.102 507.836C520.669 507.836 520.315 507.945 520.039 508.164C519.763 508.378 519.625 508.651 519.625 508.984H517.727C517.727 508.521 517.88 508.089 518.188 507.688C518.495 507.281 518.911 506.964 519.438 506.734C519.969 506.505 520.56 506.391 521.211 506.391C522.201 506.391 522.99 506.641 523.578 507.141C524.167 507.635 524.469 508.333 524.484 509.234V513.047C524.484 513.807 524.591 514.414 524.805 514.867V515H522.867ZM520.781 513.633C521.156 513.633 521.508 513.542 521.836 513.359C522.169 513.177 522.419 512.932 522.586 512.625V511.031H521.562C520.859 511.031 520.331 511.154 519.977 511.398C519.622 511.643 519.445 511.99 519.445 512.438C519.445 512.802 519.565 513.094 519.805 513.312C520.049 513.526 520.375 513.633 520.781 513.633ZM528.852 504.492V506.547H530.344V507.953H528.852V512.672C528.852 512.995 528.914 513.229 529.039 513.375C529.169 513.516 529.398 513.586 529.727 513.586C529.945 513.586 530.167 513.56 530.391 513.508V514.977C529.958 515.096 529.542 515.156 529.141 515.156C527.682 515.156 526.953 514.352 526.953 512.742V507.953H525.562V506.547H526.953V504.492H528.852ZM535.273 513.641C535.747 513.641 536.141 513.503 536.453 513.227C536.766 512.951 536.932 512.609 536.953 512.203H538.742C538.721 512.729 538.557 513.221 538.25 513.68C537.943 514.133 537.526 514.492 537 514.758C536.474 515.023 535.906 515.156 535.297 515.156C534.115 515.156 533.177 514.773 532.484 514.008C531.792 513.242 531.445 512.185 531.445 510.836V510.641C531.445 509.354 531.789 508.326 532.477 507.555C533.164 506.779 534.102 506.391 535.289 506.391C536.294 506.391 537.112 506.685 537.742 507.273C538.378 507.857 538.711 508.625 538.742 509.578H536.953C536.932 509.094 536.766 508.695 536.453 508.383C536.146 508.07 535.753 507.914 535.273 507.914C534.659 507.914 534.185 508.138 533.852 508.586C533.518 509.029 533.349 509.703 533.344 510.609V510.914C533.344 511.831 533.508 512.516 533.836 512.969C534.169 513.417 534.648 513.641 535.273 513.641ZM542.047 507.469C542.667 506.75 543.451 506.391 544.398 506.391C546.201 506.391 547.115 507.419 547.141 509.477V515H545.242V509.547C545.242 508.964 545.115 508.552 544.859 508.312C544.609 508.068 544.24 507.945 543.75 507.945C542.99 507.945 542.422 508.284 542.047 508.961V515H540.148V503H542.047V507.469ZM555.43 504.492V506.547H556.922V507.953H555.43V512.672C555.43 512.995 555.492 513.229 555.617 513.375C555.747 513.516 555.977 513.586 556.305 513.586C556.523 513.586 556.745 513.56 556.969 513.508V514.977C556.536 515.096 556.12 515.156 555.719 515.156C554.26 515.156 553.531 514.352 553.531 512.742V507.953H552.141V506.547H553.531V504.492H555.43ZM563.5 514.172C562.943 514.828 562.151 515.156 561.125 515.156C560.208 515.156 559.513 514.888 559.039 514.352C558.57 513.815 558.336 513.039 558.336 512.023V506.547H560.234V512C560.234 513.073 560.68 513.609 561.57 513.609C562.492 513.609 563.115 513.279 563.438 512.617V506.547H565.336V515H563.547L563.5 514.172ZM569.648 504.492V506.547H571.141V507.953H569.648V512.672C569.648 512.995 569.711 513.229 569.836 513.375C569.966 513.516 570.195 513.586 570.523 513.586C570.742 513.586 570.964 513.56 571.188 513.508V514.977C570.755 515.096 570.339 515.156 569.938 515.156C568.479 515.156 567.75 514.352 567.75 512.742V507.953H566.359V506.547H567.75V504.492H569.648ZM572.008 510.695C572.008 509.867 572.172 509.122 572.5 508.461C572.828 507.794 573.289 507.284 573.883 506.93C574.477 506.57 575.159 506.391 575.93 506.391C577.07 506.391 577.995 506.758 578.703 507.492C579.417 508.227 579.802 509.201 579.859 510.414L579.867 510.859C579.867 511.693 579.706 512.438 579.383 513.094C579.065 513.75 578.607 514.258 578.008 514.617C577.414 514.977 576.727 515.156 575.945 515.156C574.753 515.156 573.797 514.76 573.078 513.969C572.365 513.172 572.008 512.112 572.008 510.789V510.695ZM573.906 510.859C573.906 511.729 574.086 512.411 574.445 512.906C574.805 513.396 575.305 513.641 575.945 513.641C576.586 513.641 577.083 513.391 577.438 512.891C577.797 512.391 577.977 511.659 577.977 510.695C577.977 509.841 577.792 509.164 577.422 508.664C577.057 508.164 576.56 507.914 575.93 507.914C575.31 507.914 574.818 508.161 574.453 508.656C574.089 509.146 573.906 509.88 573.906 510.859ZM585.898 508.281C585.648 508.24 585.391 508.219 585.125 508.219C584.255 508.219 583.669 508.552 583.367 509.219V515H581.469V506.547H583.281L583.328 507.492C583.786 506.758 584.422 506.391 585.234 506.391C585.505 506.391 585.729 506.427 585.906 506.5L585.898 508.281ZM589.117 515H587.219V506.547H589.117V515ZM587.102 504.352C587.102 504.06 587.193 503.818 587.375 503.625C587.562 503.432 587.828 503.336 588.172 503.336C588.516 503.336 588.781 503.432 588.969 503.625C589.156 503.818 589.25 504.06 589.25 504.352C589.25 504.638 589.156 504.878 588.969 505.07C588.781 505.258 588.516 505.352 588.172 505.352C587.828 505.352 587.562 505.258 587.375 505.07C587.193 504.878 587.102 504.638 587.102 504.352ZM596.242 515C596.159 514.839 596.086 514.576 596.023 514.211C595.419 514.841 594.68 515.156 593.805 515.156C592.956 515.156 592.263 514.914 591.727 514.43C591.19 513.945 590.922 513.346 590.922 512.633C590.922 511.732 591.255 511.042 591.922 510.562C592.594 510.078 593.552 509.836 594.797 509.836H595.961V509.281C595.961 508.844 595.839 508.495 595.594 508.234C595.349 507.969 594.977 507.836 594.477 507.836C594.044 507.836 593.69 507.945 593.414 508.164C593.138 508.378 593 508.651 593 508.984H591.102C591.102 508.521 591.255 508.089 591.562 507.688C591.87 507.281 592.286 506.964 592.812 506.734C593.344 506.505 593.935 506.391 594.586 506.391C595.576 506.391 596.365 506.641 596.953 507.141C597.542 507.635 597.844 508.333 597.859 509.234V513.047C597.859 513.807 597.966 514.414 598.18 514.867V515H596.242ZM594.156 513.633C594.531 513.633 594.883 513.542 595.211 513.359C595.544 513.177 595.794 512.932 595.961 512.625V511.031H594.938C594.234 511.031 593.706 511.154 593.352 511.398C592.997 511.643 592.82 511.99 592.82 512.438C592.82 512.802 592.94 513.094 593.18 513.312C593.424 513.526 593.75 513.633 594.156 513.633ZM601.867 515H599.969V503H601.867V515Z" fill="white"/>
<rect x="84" y="238" width="134" height="42" fill="#36393B"/>
<rect x="100.5" y="245.5" width="133" height="41" stroke="black"/>
<line x1="137.5" y1="165" x2="137.5" y2="315" stroke="black"/>
<line x1="114.5" y1="218" x2="114.5" y2="470" stroke="black"/>
</svg>
