<?xml version="1.0" encoding="utf-8"?>
<!-- Generator: Adobe Illustrator 24.3.0, SVG Export Plug-In . SVG Version: 6.00 Build 0)  -->
<svg version="1.1" id="Layer_1" xmlns="http://www.w3.org/2000/svg" xmlns:xlink="http://www.w3.org/1999/xlink" x="0px" y="0px"
	 viewBox="0 0 1920 1920" style="enable-background:new 0 0 1920 1920;" xml:space="preserve">
<style type="text/css">
	.st0{fill:#540D6E;}
	.st1{fill:#F9A620;}
	.st2{fill:none;stroke:#86BBD8;stroke-width:33;stroke-miterlimit:10;}
	.st3{fill:#FFFFFF;}
	.st4{fill:#36393B;}
	.st5{fill:#86BBD8;}
	.st6{fill:#99C24D;}
</style>
<circle class="st0" cx="965.14" cy="963.01" r="918.5"/>
<path class="st1" d="M3159.38,1039.27c0.26,57.84-17.06,99.1-62.13,147.92l-488.38,521.93l489.62,551.76
	c44.07,50.19,64.02,91.93,64.61,150.18c1.14,112.67-86.28,208.07-198.81,213.62c-67.45,3.33-125.29-20.18-169.01-70.53l-494.6-570.4
	c-47.22-54.68-156.73-183.41-156.73-276.83c0-76.89,107.03-187.94,156.73-242.62l505.78-559.21
	c45.11-49.21,100.74-71.35,168.55-66.44C3079.41,846.24,3158.9,934.59,3159.38,1039.27z"/>
<circle class="st2" cx="3881.03" cy="1731.09" r="863.53"/>
<g>
	<path class="st3" d="M563.61,774.93c0,27.64-24.57,51.59-52.82,51.59h-84.15v282.53c0,29.83-22.63,53.37-52.64,52.81
		c-28.49-0.53-51.78-25.13-51.78-53.63V826.52h-84.15c-29.48,0-52.82-23.95-52.82-51.59c0-29.48,23.34-51.59,52.82-51.59h272.7
		C540.27,723.34,563.61,745.45,563.61,774.93z"/>
	<path class="st3" d="M954.23,869.52c0,73.09-41.15,108.1-75.55,122.23l72.48,81.07c6.32,6.98,15.15,20.08,13.65,41.25
		c-1.93,27.2-24.88,47.92-52.16,48.11c-13.64,0.1-28.88-3.78-43.18-21.5l-82.92-102.88c-9.83-12.29-17.2-19.65-34.4-19.65h-38.08
		v89.67c0,28.87-23.95,54.05-52.82,54.05c-28.25,0-52.21-25.18-52.21-54.05V785.99c0-34.4,22.73-62.65,64.49-62.65h126.52
		C891.58,723.34,954.23,782.91,954.23,869.52z M714.08,817.92v106.26h74.93c45.45,0,60.19-21.5,60.19-52.21
		c0-32.55-17.81-54.05-57.12-54.05H714.08z"/>
	<path class="st1" d="M1323.94,770.01c0.06,14.29-4.22,24.49-15.35,36.56l-120.69,128.98l121,136.35
		c10.89,12.4,15.82,22.72,15.97,37.11c0.28,27.84-21.32,51.42-49.13,52.79c-16.67,0.82-30.96-4.99-41.77-17.43l-122.23-140.96
		C1100.06,989.9,1073,958.09,1073,935c0-19,26.45-46.44,38.73-59.96l124.99-138.19c11.15-12.16,24.9-17.63,41.65-16.42
		C1304.18,722.3,1323.82,744.14,1323.94,770.01z"/>
	<path class="st3" d="M1725.3,869.52c0,73.09-41.15,108.1-75.55,122.23l72.48,81.07c6.32,6.98,15.15,20.08,13.65,41.25
		c-1.93,27.2-24.88,47.92-52.15,48.11c-13.64,0.1-28.88-3.77-43.19-21.5l-82.92-102.88c-9.83-12.29-17.2-19.65-34.4-19.65h-38.08
		v89.67c0,28.87-23.95,54.05-52.82,54.05c-28.25,0-52.21-25.18-52.21-54.05V785.99c0-34.4,22.73-62.65,64.49-62.65h126.52
		C1662.65,723.34,1725.3,782.91,1725.3,869.52z M1485.15,817.92v106.26h74.93c45.45,0,60.19-21.5,60.19-52.21
		c0-32.55-17.81-54.05-57.12-54.05H1485.15z"/>
</g>
<g>
	<line class="st1" x1="1047" y1="587.7" x2="1047" y2="1280"/>
	<g>
		<path class="st1" d="M993,587.7c0,6.18,0,12.35,0,18.53c0,16.81,0,33.62,0,50.43c0,24.72,0,49.44,0,74.16c0,30.31,0,60.61,0,90.92
			c0,33.21,0,66.41,0,99.62c0,33.52,0,67.05,0,100.57c0,31.26,0,62.52,0,93.78c0,26.42,0,52.83,0,79.25c0,18.92,0,37.83,0,56.75
			c0,9.03-0.09,18.07,0,27.11c0,0.39,0,0.79,0,1.18c0,13.85,6.02,28.39,15.82,38.18c9.37,9.37,24.73,16.42,38.18,15.82
			c13.97-0.63,28.45-5.21,38.18-15.82c9.7-10.57,15.82-23.55,15.82-38.18c0-6.18,0-12.35,0-18.53c0-16.81,0-33.62,0-50.43
			c0-24.72,0-49.44,0-74.16c0-30.31,0-60.61,0-90.92c0-33.21,0-66.41,0-99.62c0-33.52,0-67.05,0-100.57c0-31.26,0-62.52,0-93.78
			c0-26.42,0-52.83,0-79.25c0-18.92,0-37.83,0-56.75c0-9.03,0.09-18.07,0-27.11c0-0.39,0-0.79,0-1.18
			c0-13.85-6.02-28.39-15.82-38.18c-9.37-9.37-24.73-16.42-38.18-15.82c-13.97,0.63-28.45,5.21-38.18,15.82
			C999.12,560.08,993,573.07,993,587.7L993,587.7z"/>
	</g>
</g>
<circle class="st0" cx="1046" cy="1268" r="35"/>
<g>
	<polygon class="st1" points="1047.86,650 1172.03,650 1109.95,531 1047.86,412 985.78,531 923.7,650 	"/>
</g>
<rect x="2048" y="347" class="st1" width="192" height="192"/>
<rect x="2048" y="554" class="st4" width="192" height="192"/>
<rect x="2048" y="761" class="st5" width="192" height="192"/>
<rect x="2048" y="968" class="st0" width="192" height="192"/>
<rect x="2048" y="1175" class="st6" width="192" height="192"/>
</svg>
